<?xml version="1.0" standalone="no"?><!DOCTYPE svg PUBLIC "-//W3C//DTD SVG 1.1//EN" "http://www.w3.org/Graphics/SVG/1.1/DTD/svg11.dtd"><svg t="1571109163624" class="icon" viewBox="0 0 1024 1024" version="1.1" xmlns="http://www.w3.org/2000/svg" p-id="2679" xmlns:xlink="http://www.w3.org/1999/xlink" width="200" height="200"><defs><style type="text/css"></style></defs><path d="M504.86731 640.847448c-16.684138 0-32.644414-3.778207-44.932414-10.663724L24.064 385.624276C8.792276 377.079172 0 364.049655 0 349.890207c0-14.177103 8.774621-27.224276 24.081655-35.787034L459.899586 69.579034c24.576-13.806345 65.324138-13.806345 89.900138 0l435.835586 244.506483c15.307034 8.580414 24.081655 21.645241 24.081655 35.80469-0.017655 14.159448-8.809931 27.17131-24.09931 35.734069L549.799724 630.166069C537.494069 637.051586 521.551448 640.847448 504.86731 640.847448zM504.86731 94.190345c-10.593103 0-20.674207 2.242207-27.68331 6.17931L41.348414 344.893793c-4.413793 2.471724-5.896828 4.678621-6.055724 5.243586 0.158897 0.03531 1.641931 2.206897 6.038069 4.678621l435.853241 244.559448c13.982897 7.821241 41.366069 7.821241 55.33131 0l435.853241-244.559448c4.431448-2.471724 5.914483-4.660966 6.091034-5.225931-0.176552-0.017655-1.677241-2.224552-6.091034-4.713931L532.51531 100.38731C525.523862 96.450207 515.442759 94.190345 504.86731 94.190345z" p-id="2680"></path><path d="M504.990897 953.37931c-193.677241 0-341.097931-62.411034-346.182621-145.761103-0.282483-1.235862-0.423724-2.52469-0.423724-3.848828L158.384552 478.931862c0-9.745655 7.909517-17.655172 17.655172-17.655172s17.655172 7.909517 17.655172 17.655172l0 321.641931c0.194207 0.971034 0.300138 1.977379 0.300138 3.019034C194.577655 857.723586 322.454069 918.068966 504.990897 918.068966s310.395586-60.327724 310.978207-114.476138c0-0.459034 0.03531-0.935724 0.070621-1.377103L816.039724 478.931862c0-9.745655 7.891862-17.655172 17.655172-17.655172s17.655172 7.909517 17.655172 17.655172l0 324.837517c0 0.670897-0.03531 1.341793-0.105931 1.995034C848.242759 890.050207 700.080552 953.37931 504.990897 953.37931z" p-id="2681"></path><path d="M985.900138 842.292966c-9.76331 0-17.655172-7.891862-17.655172-17.655172L968.244966 485.499586c0-9.745655 7.891862-17.655172 17.655172-17.655172s17.655172 7.909517 17.655172 17.655172l0 339.138207C1003.55531 834.401103 995.663448 842.292966 985.900138 842.292966z" p-id="2682"></path></svg>